<svg width="64" height="64" viewBox="0 0 64 64" fill="none" xmlns="http://www.w3.org/2000/svg">
<g clip-path="url(#clip0_126_23471)">
<rect width="64" height="64" fill="white" fill-opacity="0.01" style="mix-blend-mode:multiply"/>
<path d="M32.004 12.3428H31.996L9.29742 55.9932L9.30122 56H54.6988L54.7026 55.9932L32.004 12.3428ZM29.75 24H34.25V42H29.75V24ZM32 52C31.4067 52 30.8267 51.8241 30.3333 51.4944C29.84 51.1648 29.4554 50.6963 29.2284 50.1481C29.0013 49.5999 28.9419 48.9967 29.0577 48.4148C29.1734 47.8328 29.4591 47.2983 29.8787 46.8787C30.2983 46.4592 30.8328 46.1734 31.4147 46.0577C31.9967 45.9419 32.5999 46.0013 33.1481 46.2284C33.6962 46.4555 34.1648 46.84 34.4944 47.3333C34.8241 47.8267 35 48.4067 35 49C35 49.7957 34.6839 50.5587 34.1213 51.1213C33.5587 51.684 32.7957 52 32 52Z" fill="#FF832B"/>
<path d="M58 60H6.00002C5.6564 60 5.31859 59.9115 5.01913 59.743C4.71968 59.5745 4.4687 59.3316 4.29038 59.0379C4.11207 58.7442 4.01244 58.4095 4.00109 58.0661C3.98975 57.7226 4.06707 57.3821 4.22562 57.0772L30.2256 7.07723C30.3945 6.7525 30.6492 6.48033 30.9621 6.29039C31.275 6.10044 31.634 6 32 6C32.366 6 32.725 6.10044 33.0379 6.29039C33.3508 6.48033 33.6055 6.7525 33.7744 7.07723L59.7744 57.0772C59.933 57.3821 60.0103 57.7226 59.9989 58.0661C59.9876 58.4095 59.888 58.7442 59.7096 59.0379C59.5313 59.3316 59.2803 59.5745 58.9809 59.743C58.6814 59.9115 58.3436 60 58 60ZM9.30122 56H54.6988L54.7026 55.9932L32.004 12.3428H31.996L9.29742 55.9932L9.30122 56Z" fill="#FF832B"/>
</g>
<defs>
<clipPath id="clip0_126_23471">
<rect width="64" height="64" fill="white"/>
</clipPath>
</defs>
</svg>
