<svg width="64" height="64" viewBox="0 0 64 64" fill="none" xmlns="http://www.w3.org/2000/svg">
<g clip-path="url(#clip0_126_23465)">
<rect width="64" height="64" transform="translate(0 1)" fill="white" fill-opacity="0.01" style="mix-blend-mode:multiply"/>
<path d="M32 5C26.4621 5 21.0486 6.64217 16.444 9.71885C11.8395 12.7955 8.25064 17.1685 6.13139 22.2849C4.01213 27.4012 3.45764 33.0311 4.53802 38.4625C5.61841 43.894 8.28515 48.8831 12.201 52.799C16.1169 56.7149 21.106 59.3816 26.5375 60.462C31.969 61.5424 37.5988 60.9879 42.7151 58.8686C47.8315 56.7494 52.2045 53.1605 55.2812 48.556C58.3578 43.9514 60 38.5379 60 33C60 25.5739 57.05 18.452 51.799 13.201C46.548 7.94999 39.4261 5 32 5ZM28 44.1816L18 34.1816L21.1812 31L28 37.8184L42.82 23L46.0114 26.1718L28 44.1816Z" fill="#24A148"/>
</g>
<defs>
<clipPath id="clip0_126_23465">
<rect width="64" height="64" fill="white"/>
</clipPath>
</defs>
</svg>
