<svg width="64" height="64" viewBox="0 0 64 64" fill="none" xmlns="http://www.w3.org/2000/svg">
<g clip-path="url(#clip0_126_23458)">
<rect width="64" height="64" fill="white" fill-opacity="0.01" style="mix-blend-mode:multiply"/>
<path d="M31.9999 4.00053C28.3165 3.9777 24.6653 4.68635 21.2578 6.08539C17.8504 7.48443 14.7546 9.54603 12.15 12.1506C9.54542 14.7552 7.48382 17.851 6.08478 21.2584C4.68574 24.6659 3.97709 28.3171 3.99992 32.0005C3.97709 35.6839 4.68574 39.3352 6.08478 42.7426C7.48382 46.1501 9.54542 49.2458 12.15 51.8504C14.7546 54.455 17.8504 56.5166 21.2578 57.9157C24.6653 59.3147 28.3165 60.0234 31.9999 60.0005C35.6833 60.0234 39.3346 59.3147 42.742 57.9157C46.1494 56.5166 49.2452 54.455 51.8498 51.8504C54.4544 49.2458 56.516 46.1501 57.9151 42.7426C59.3141 39.3352 60.0228 35.6839 59.9999 32.0005C60.0228 28.3171 59.3141 24.6659 57.9151 21.2584C56.516 17.851 54.4544 14.7552 51.8498 12.1506C49.2452 9.54603 46.1494 7.48443 42.742 6.08539C39.3346 4.68635 35.6833 3.9777 31.9999 4.00053ZM42.8897 46.0005L17.9999 21.1119L21.1113 18.0005L45.9999 42.8901L42.8897 46.0005Z" fill="#DA1E28"/>
</g>
<defs>
<clipPath id="clip0_126_23458">
<rect width="64" height="64" fill="white"/>
</clipPath>
</defs>
</svg>
