<svg width="64" height="64" viewBox="0 0 64 64" fill="none" xmlns="http://www.w3.org/2000/svg">
<g clip-path="url(#clip0_126_23392)">
<rect width="64" height="64" fill="white" fill-opacity="0.01"/>
<path d="M36 56H28C26.9391 56 25.9217 55.5786 25.1716 54.8284C24.4214 54.0783 24 53.0609 24 52V36.82L9.18 22C8.42882 21.2533 8.00447 20.2392 8 19.18V12C8 10.9391 8.42143 9.92172 9.17157 9.17157C9.92172 8.42143 10.9391 8 12 8H52C53.0609 8 54.0783 8.42143 54.8284 9.17157C55.5786 9.92172 56 10.9391 56 12V19.18C55.9955 20.2392 55.5712 21.2533 54.82 22L40 36.82V52C40 53.0609 39.5786 54.0783 38.8284 54.8284C38.0783 55.5786 37.0609 56 36 56ZM12 12V19.18L28 35.18V52H36V35.18L52 19.18V12H12Z" fill="#161616"/>
</g>
<defs>
<clipPath id="clip0_126_23392">
<rect width="64" height="64" fill="white"/>
</clipPath>
</defs>
</svg>
