<svg width="64" height="64" viewBox="0 0 64 64" fill="none" xmlns="http://www.w3.org/2000/svg">
<g clip-path="url(#clip0_126_23455)">
<path d="M32 5.33398C17.3334 5.33398 5.33337 17.334 5.33337 32.0007C5.33337 46.6673 17.3334 58.6673 32 58.6673C46.6667 58.6673 58.6667 46.6673 58.6667 32.0007C58.6667 17.334 46.6667 5.33398 32 5.33398ZM32 18.6673C34.1334 18.6673 36 20.534 36 22.6673C36 24.8007 34.1334 26.6673 32 26.6673C29.8667 26.6673 28 24.8007 28 22.6673C28 20.534 29.8667 18.6673 32 18.6673ZM37.3334 45.334H26.6667V42.6673H29.3334V32.0007H26.6667V29.334H34.6667V42.6673H37.3334V45.3313V45.334Z" fill="#1C8CE3"/>
</g>
<defs>
<clipPath id="clip0_126_23455">
<rect width="64" height="64" fill="white"/>
</clipPath>
</defs>
</svg>
