<svg width="64" height="64" viewBox="0 0 64 64" fill="none" xmlns="http://www.w3.org/2000/svg">
<g clip-path="url(#clip0_126_23388)">
<path d="M32 5.33274C17.184 5.33274 5.33331 17.1834 5.33331 31.9994H11.2586C11.2586 20.4447 20.4426 11.2581 32 11.2581C38.5173 11.2581 44.1493 14.2207 48 18.9621L40.888 26.0741H58.6666V8.29541L52.1493 14.8127C47.408 8.88741 40 5.33008 32 5.33008V5.33274ZM52.7413 31.9994C52.7413 43.5541 43.5573 52.7407 32 52.7407C25.4826 52.7407 19.8506 49.7781 16 45.0367L23.112 37.9247H5.33331V55.7034L11.8506 49.1861C16.592 55.1114 24 58.6687 32 58.6687C46.816 58.6687 58.6666 46.8181 58.6666 32.0021H52.7413V31.9994Z" fill="#161616"/>
</g>
<defs>
<clipPath id="clip0_126_23388">
<rect width="64" height="64" fill="white"/>
</clipPath>
</defs>
</svg>
